# xmcd CD database file
#
# Track frame offsets:
#	150
#	59043
#	71648
#	82810
#	95416
#	117472
#	131722
#	162021
#	193224
#	213312
#	238440
#	262809
#	286660
#	310824
#
# Disc length: 4415 seconds
#
# Revision: 0
# Processed by: cddbd v1.5.2PL0 Copyright (c) Steve Scherf et al.
# Submitted via: CDex 1.70beta2
#
DISCID=cd113d0e
DTITLE=Waltraud Kuhn - Quigong - Alles im Fluss - Basisübungen 1
DYEAR=2002
DGENRE=New Age
TTITLE0=I. Lockerung der Gelenke
TTITLE1=II. Schulung der Körperwahrnehmung (a) im Sitzen 1. Über den Sitzknochen schwingen
TTITLE2=2. Über den Sitzknochen kreisen
TTITLE3=3. Über den Sitzknochen vor- und zurückschwingen
TTITLE4=4. Über den Sitzknochen nach rechts und links schwingen
TTITLE5=(b) im Stehen  1. Grundhaltung erarbeiten
TTITLE6=2. Schüttelübung
TTITLE7=3. Das bewegte Stehen
TTITLE8=III. Mit allen Sinnen 1. Schildkröte
TTITLE9=2. Augenübungen
TTITLE10=3. Einen Riecher haben
TTITLE11=4. Die Ohren wärmen
TTITLE12=IV. Ruhe und Gelassenheit  1. durch die Finger atmen
TTITLE13=2. Verbesserung der Gedächtniskraft
EXTD=YEAR: 2002
EXTT0=
EXTT1=
EXTT2=
EXTT3=
EXTT4=
EXTT5=
EXTT6=
EXTT7=
EXTT8=
EXTT9=
EXTT10=
EXTT11=
EXTT12=
EXTT13=
PLAYORDER=
